<svg width="50px" height="50px" viewBox="0 0 4 4" fill="#0077c8" xmlns="http://www.w3.org/2000/svg" xmlns:xlink="http://www.w3.org/1999/xlink" aria-hidden="true" role="img" class="iconify iconify--medical-icon" preserveAspectRatio="xMidYMid meet"><path d="M3.551 2.223V1.44c0 -0.111 0.091 -0.201 0.203 -0.201a0.201 0.201 0 0 1 0.201 0.201v1.072a0.621 0.621 0 0 1 -0.149 0.403L3.138 3.624c-0.066 0.062 -0.083 0.118 -0.083 0.201v0.129H2.328l-0.001 -0.307c0 -0.117 -0.01 -0.274 0.137 -0.427l0.848 -0.851a0.161 0.161 0 0 1 0.234 0.22l-0.409 0.438c-0.026 0.031 -0.071 0.09 -0.094 0.161 -0.012 0.037 -0.015 0.074 -0.016 0.115h0.132c0.001 -0.03 0.003 -0.054 0.01 -0.076 0.013 -0.041 0.038 -0.079 0.058 -0.102l0.415 -0.456c0.052 -0.053 0.081 -0.121 0.081 -0.192 0 -0.108 -0.065 -0.206 -0.172 -0.255z" fill="#0077c8 "/><path d="M0.487 2.223V1.44c0 -0.111 -0.091 -0.201 -0.203 -0.201a0.201 0.201 0 0 0 -0.201 0.201v1.072c0 0.148 0.053 0.291 0.149 0.403l0.668 0.71c0.066 0.062 0.083 0.118 0.083 0.201v0.129h0.727l0.001 -0.307c0 -0.117 0.01 -0.274 -0.137 -0.427L0.727 2.369a0.161 0.161 0 0 0 -0.234 0.22l0.409 0.438c0.026 0.031 0.071 0.09 0.094 0.161 0.012 0.037 0.015 0.074 0.016 0.115H0.879c-0.001 -0.03 -0.003 -0.054 -0.01 -0.076 -0.013 -0.041 -0.038 -0.079 -0.058 -0.102l-0.415 -0.456c-0.052 -0.053 -0.081 -0.121 -0.081 -0.192 0 -0.108 0.065 -0.207 0.172 -0.255z" fill="#0077c8 "/><path d="M2.096 0.383a0.173 0.173 0 0 0 0 -0.345 0.173 0.173 0 0 0 0 0.345" fill="#0077c8 "/><path d="M1.159 0.384a0.174 0.174 0 0 1 -0.175 -0.174 0.174 0.174 0 0 1 0.175 -0.174c0.097 0 0.175 0.078 0.175 0.174 0 0.096 -0.079 0.174 -0.175 0.174" fill="#0077c8 "/><path d="M2.954 1.05a0.121 0.121 0 1 0 0 -0.242 0.121 0.121 0 0 0 0 0.242" fill="#0077c8 "/><path d="M3.129 1.11H2.803c-0.002 0 -0.109 -0.01 -0.109 -0.01l-0.137 -0.477c-0.055 -0.192 -0.216 -0.186 -0.216 -0.186h-0.443s-0.161 -0.006 -0.216 0.186l-0.068 0.235 -0.067 -0.235c-0.055 -0.192 -0.216 -0.186 -0.216 -0.186h-0.343s-0.161 -0.006 -0.216 0.186l-0.138 0.481c-0.013 0.045 0.011 0.079 0.051 0.09 0.039 0.011 0.079 -0.009 0.089 -0.044l0.134 -0.468 0.065 0 -0.196 0.811h0.173v0.576c0 0.047 0.038 0.086 0.086 0.086 0.047 0 0.086 -0.039 0.086 -0.086v-0.576h0.073v0.576c0 0.047 0.038 0.086 0.086 0.086a0.086 0.086 0 0 0 0.086 -0.086v-0.576h0.17L1.344 0.681l0.065 0 0.133 0.464q0.003 0.012 0.01 0.021c0.013 0.02 0.036 0.031 0.061 0.03 0.025 0.001 0.048 -0.01 0.061 -0.029a0.063 0.063 0 0 0 0.011 -0.024l0.132 -0.461 0.06 0v1.371c0 0.056 0.046 0.101 0.102 0.101 0.056 0 0.101 -0.045 0.101 -0.101V1.272h0.075v0.78c0 0.056 0.045 0.101 0.101 0.101 0.056 0 0.102 -0.045 0.102 -0.101V0.681l0.066 0 0.129 0.468c0.007 0.023 0.026 0.038 0.049 0.044 0.001 0 0.002 0.001 0.002 0.001 0.021 0.005 0.115 0.031 0.184 0.051v0.85a0.071 0.071 0 0 0 0.142 0v-0.425h0.056v0.425c0 0.039 0.032 0.071 0.071 0.071s0.071 -0.032 0.071 -0.071V1.302h0.055v0.269c0 0.03 0.024 0.053 0.053 0.053a0.052 0.052 0 0 0 0.052 -0.053v-0.306c0 -0.086 -0.075 -0.155 -0.161 -0.155z" fill="#0077c8 "/></svg>